<?xml version="1.0" encoding="UTF-8" standalone="no" ?>
<!DOCTYPE svg PUBLIC "-//W3C//DTD SVG 20010904//EN" "http://www.w3.org/TR/2001/REC-SVG-20010904/DTD/svg10.dtd">

<svg
    xmlns="http://www.w3.org/2000/svg"
    viewBox="0 0 1024 1024">

  <path
      id="S"
      fill="#62929E"
      stroke="#393D3F"
      stroke-width="18"
      d="M 423.30,282.07
           C 521.94,282.07 842.11,282.07 939.45,282.07
             957.41,282.07 972.14,268.99 977.46,253.02
             980.44,244.09 983.72,234.26 986.70,225.32
             992.06,209.24 986.29,196.02 968.40,196.02
             855.84,196.02 437.60,196.02 323.12,196.02
             305.16,196.02 287.33,219.89 298.41,253.11
             316.20,306.50 342.05,384.03 355.87,425.49
             361.73,443.08 375.89,454.17 393.66,454.17
             475.64,454.17 713.12,454.17 795.67,454.17
             813.72,454.17 819.98,467.32 814.64,483.34
             811.85,496.42 808.43,501.97 805.47,510.86
             800.10,526.97 785.09,540.22 766.45,540.22
             655.08,540.22 256.18,540.22 106.87,540.22
             89.90,540.22 69.27,553.85 69.27,581.82
             68.55,609.42 88.36,626.27 107.07,626.27
             254.91,626.27 648.63,626.27 796.17,626.27
             837.63,626.27 865.85,587.87 881.57,540.69
             898.23,490.73 918.16,430.92 929.66,396.45
             935.45,379.07 928.32,368.12 909.89,368.12
             818.84,368.12 540.95,368.12 451.12,368.12
             433.23,368.12 418.54,355.37 413.32,339.69
             409.23,327.45 404.56,313.41 400.84,302.26
             396.95,290.59 404.58,282.07 423.30,282.07 Z" />

  <path
      id="L"
      fill="#546A7B"
      stroke="#393D3F"
      stroke-width="18"
      d="M 996.46,798.38
                C 967.78,827.06 939.10,798.38 939.10,798.38
                  939.10,798.38 928.28,783.48 917.58,773.28
                  905.11,761.38 892.49,753.92 892.49,753.92
                  856.27,741.01 862.43,740.49 767.00,741.01
                  767.00,741.01 250.69,741.01 250.69,741.01
                  193.33,741.01 193.33,654.96 250.69,654.96
                  250.69,654.96 267.51,654.96 282.94,654.96
                  296.00,654.96 304.72,644.38 298.97,626.17
                  269.13,531.69 174.41,231.74 144.86,138.15
                  139.23,120.31 122.72,109.97 106.62,109.97
                  81.69,109.97 49.91,109.97 49.91,109.97
                  4.26,110.03 4.31,23.98 50.28,23.92
                  50.28,23.92 122.36,23.92 164.19,23.92
                  181.28,23.92 196.80,34.02 202.71,52.61
                  236.40,158.47 384.98,626.21 384.98,626.21
                  390.78,644.48 404.85,654.96 422.83,654.96
                  514.73,654.96 795.68,654.96 795.68,654.96
                  830.99,654.96 875.35,656.51 910.41,673.60
                  960.79,698.16 996.46,741.01 996.46,741.01
                  996.46,741.01 1025.15,769.69 996.46,798.38 Z" />

  <g id="LWHEEL">
    <circle
        id="l-back"
        cx="400"
        cy="884"
        r="80"
        fill="none"
        stroke="#33658A"
        stroke-width="48"></circle>

    <circle
        id="l-middle"
        cx="400"
        cy="884"
        r="110"
        fill="none"
        stroke="#393D3F"
        stroke-width="18"></circle>

    <circle
        id="l-front"
        cx="400"
        cy="884"
        r="60"
        fill="none"
        stroke="#393D3F"
        stroke-width="18"></circle>
  </g>

  <g id="RWHEEL">
    <circle
        id="r-back"
        cx="807.15"
        cy="884"
        r="80"
        fill="none"
        stroke="#33658A"
        stroke-width="48"></circle>

    <circle
        id="r-middle"
        cx="807.15"
        cy="884"
        r="110"
        fill="none"
        stroke="#393D3F"
        stroke-width="18"></circle>

    <circle
        id="r-front"
        cx="807.15"
        cy="884"
        r="60"
        fill="none"
        stroke="#393D3F"
        stroke-width="18"></circle>
  </g>
</svg>